<svg id="Layer_1" data-name="Layer 1" xmlns="http://www.w3.org/2000/svg" viewBox="0 0 438 129.33"><defs><style>.cls-1{opacity:0.49;}.cls-2{font-size:18.51px;fill:#d1d3d4;letter-spacing:0.5em;}.cls-2,.cls-6{font-family:RioGlamour, RioGlamour;}.cls-3{letter-spacing:0.43em;}.cls-4{letter-spacing:0.46em;}.cls-5{letter-spacing:0.5em;}.cls-6{font-size:62.86px;fill:#fff;}.cls-7{letter-spacing:0em;}.cls-8{fill:#4aa5dc;}.cls-9{fill:#a1ddf5;}</style></defs><title>mizutrade-logo-05</title><g class="cls-1"><text class="cls-2" transform="translate(148.23 106.87)">DIGI<tspan class="cls-3" x="70.16" y="0">T</tspan><tspan x="87.22" y="0">AL</tspan><tspan class="cls-4" x="125.8" y="0"> </tspan><tspan class="cls-5" x="138.31" y="0">VENTURES</tspan></text></g><text class="cls-6" transform="translate(148.23 77.51)">mizut<tspan class="cls-7" x="149.48" y="0">r</tspan><tspan x="169.72" y="0">ade</tspan></text><path class="cls-8" d="M68.74,45a42.81,42.81,0,1,0-43.93,73.5c.8.48,1.61.93,2.42,1.35a35,35,0,0,0,3.49.86c.39.08.78.14,1.19.21l.62.08.64.09.65.07.67.06.68,0,.7,0c1,0,1.93,0,3,0s2.08-.14,3.16-.29A35.63,35.63,0,0,0,55.8,116.1a33,33,0,0,0,3.4-2.37,34.09,34.09,0,0,0,3.22-2.84,39.27,39.27,0,0,0,2.94-3.33,37.36,37.36,0,0,0,2.56-3.78c.1-.16.19-.33.29-.5l.29-.51.27-.51.14-.26.13-.26.26-.53.25-.53c.17-.36.32-.72.48-1.08l.06-.14s0,.05,0,0l0-.07.11-.29.23-.59.12-.3c0-.09.08-.2.1-.28l.17-.55c.24-.7.43-1.48.62-2.25a25.07,25.07,0,0,0,.24-9.54,26,26,0,0,0-1.25-4.67,27.59,27.59,0,0,0-2-4.37,31.24,31.24,0,0,0-2.72-3.93,33.13,33.13,0,0,0-7-6.35l-1-.64c-.34-.2-.68-.4-1-.61-.69-.38-1.38-.76-2.1-1.1l-.43-.22-.65-.28-.33-.14-.08,0-.06,0L53,63.16,52.52,63l-.11,0-.12-.05L52,62.82l-.54-.18-.27-.08-.27-.07-.55-.14-.55-.12a5.54,5.54,0,0,0-.56-.11L48.72,62,48.45,62l-.29,0-.56-.06a2.66,2.66,0,0,0-.28,0l-.28,0-.57,0H45.33l-.57,0c-.19,0-.38,0-.56,0l-.57,0-.57.08a5,5,0,0,0-.56.08l-.57.1-.28.05-.28.07a20.18,20.18,0,0,0-4.32,1.46,21.07,21.07,0,0,0-3.9,2.4,19.74,19.74,0,0,0-3.26,3.2,21.45,21.45,0,0,0-2.48,3.83l-.07.13,0,.06c0,.12,0-.08,0,0l-.14.32L27,74l-.08.16,0,.08,0,.07c0,.14-.11.29-.17.43l0,.11a1.17,1.17,0,0,0-.05.11l-.08.26A15.26,15.26,0,0,0,26,77.26l-.09.53c0,.09,0,.17,0,.26l0,.27c-.06.36-.07.71-.11,1.07,0,.18,0,.36,0,.54v.54c0,.17,0,.35,0,.53l0,.54c0,.18,0,.36.06.53l0,.27a1.24,1.24,0,0,0,0,.27l.08.53,0,.13,0,.13.06.27c.06.35.17.69.25,1,.05.17.11.34.16.51l.08.26.09.25.18.5.21.5.11.24.11.24c.08.16.15.33.23.48.17.32.33.64.52.94l.13.22a1.82,1.82,0,0,0,.15.23l.29.44.07.11.08.11.16.21.16.22.07.1.09.11.33.41.09.1.08.1.18.19.18.2.08.1.1.09.37.38.09.09.1.09.19.18.19.18.2.17c.27.22.53.46.82.66l.42.31.44.29.21.15.23.13.44.28.46.25.23.12.12.06c-.14-.06,0,0,0,0l.07,0,.57.27.06,0,0,0,.1,0,.2.08.1,0,.1,0,.23.08a4.34,4.34,0,0,0,.47.16l.47.15.47.11a4.1,4.1,0,0,0,.48.1l.24,0,.24,0a13.15,13.15,0,0,0,7.52-1.08,13.49,13.49,0,0,0,5.55-4.79,14.44,14.44,0,0,0,.9-1.57l.11-.23.07-.18.08-.17,0-.09,0-.1.15-.4.13-.4a11.72,11.72,0,0,0,.36-1.64,11.55,11.55,0,0,0,.09-1.66,10.93,10.93,0,0,0-.54-3.18,10.79,10.79,0,0,0-1.36-2.79c-.14-.21-.28-.42-.44-.62s-.31-.38-.47-.57-.17-.18-.25-.28-.17-.18-.26-.26l-.53-.5a13.09,13.09,0,0,0-1.13-.87l-.3-.19c-.1-.06-.19-.13-.29-.18l-.31-.18-.15-.08s0,0,0,0l0,0-.09,0-.33-.17-.28-.12a2.52,2.52,0,0,0-.29-.12l-.31-.11A8.85,8.85,0,0,0,45,73.21a10.3,10.3,0,0,0-1.21-.16c-.2,0-.4,0-.59,0h-.58a9.74,9.74,0,0,0-2.16.37,10.8,10.8,0,0,0-1.82.74,9.83,9.83,0,0,0-2.51,1.9,9.22,9.22,0,0,0-1.24,1.57l-.09.13-.07.12-.11.19-.09.15-.08,0,.06-.17.08-.2,0-.14.07-.15.16-.35.21-.43.28-.49.17-.26c.06-.09.12-.19.19-.28l.2-.28.24-.3.12-.15.13-.15c.09-.1.18-.21.28-.31a10.9,10.9,0,0,1,1.4-1.24A11.05,11.05,0,0,1,40,72.18a11.17,11.17,0,0,1,2.41-.78l.33-.06.34,0c.23,0,.47-.06.71-.07a12,12,0,0,1,1.47,0c.25,0,.51,0,.76.08s.26,0,.39.06l.39.07c.13,0,.26.06.39.09l.4.1.42.13.36.12.09,0,0,0,.07,0,.2.08.38.16c.13,0,.26.12.39.18l.38.18a14.78,14.78,0,0,1,1.52.9c.25.16.49.35.74.53l.36.29.35.3c.24.22.47.43.69.66s.44.47.66.71a14.62,14.62,0,0,1,2.18,3.41,14.81,14.81,0,0,1,1.2,4.17,15.83,15.83,0,0,1,.12,2.29,14.66,14.66,0,0,1-.25,2.36l-.12.59-.15.58,0,.15a1,1,0,0,0,0,.16l-.1.31-.1.32-.09.25a20.57,20.57,0,0,1-1,2.22,18.29,18.29,0,0,1-2.94,4.1c-.29.32-.61.61-.92.92l-.5.43-.25.21L51,98.6l-.26.2-.27.2-.54.39-.57.37-.28.18-.3.17-.59.34-.61.31-.62.29-.32.14-.32.12-.32.13a2.19,2.19,0,0,1-.33.12l-.66.23-.67.2-.34.09-.35.09c-.46.11-.92.19-1.39.28s-1,.14-1.43.17a19,19,0,0,1-2.92,0c-.12,0-.25,0-.37,0l-.37,0c-.24,0-.49,0-.74-.09l-.73-.12L35,102.2c-.24,0-.48-.12-.72-.18l-.37-.1-.19-.06-.19-.06-.4-.13-.19-.07-.1,0-.08,0-.59-.22-.07,0-.16-.07-.17-.07-.33-.15c-.23-.1-.46-.19-.68-.3l-.66-.33-.34-.17-.32-.19-.65-.37-.64-.4c-.43-.26-.83-.57-1.25-.86l-.3-.23-.3-.23-.3-.24-.15-.12-.15-.13-.58-.5-.14-.13-.14-.13-.28-.27-.28-.27L24.1,96,24,95.87l-.53-.57-.13-.14L23.17,95l-.25-.29-.25-.3-.13-.15-.12-.15L22,93.49l-.23-.31-.23-.32c-.31-.43-.58-.88-.86-1.33-.13-.22-.26-.46-.39-.69l-.19-.34c-.07-.12-.12-.24-.18-.36l-.36-.71c-.11-.24-.22-.49-.32-.73L19,88.33,18.88,88c-.09-.25-.19-.5-.28-.76-.17-.51-.35-1-.48-1.54L18,85.27,18,85.08c0-.07,0-.13,0-.2l-.18-.79c0-.14-.06-.27-.08-.4l-.07-.41c0-.26-.1-.53-.13-.8l-.1-.82c0-.27,0-.55-.06-.82l0-.41,0-.41c0-.28,0-.55,0-.83,0-.55,0-1.11.07-1.66l0-.42c0-.14,0-.27,0-.41l.1-.83a23.07,23.07,0,0,1,.7-3.28l.11-.41a1.72,1.72,0,0,1,.07-.21l.07-.22.3-.87,0-.1,0-.08.06-.16.12-.32.13-.33s.11-.25.08-.19l0-.09.09-.19a29.28,29.28,0,0,1,3.29-5.7c.31-.45.67-.88,1-1.31a4.15,4.15,0,0,1,.27-.32l.27-.31.56-.63.58-.6c.2-.19.39-.4.6-.59l.61-.57.31-.28.32-.27a30.71,30.71,0,0,1,5.58-3.77A30.09,30.09,0,0,1,39,52.65l.41-.11.42-.09.83-.18c.28-.07.56-.1.84-.15l.84-.14.85-.1c.29,0,.57-.07.85-.08l.86-.06.42,0h1.29l.86,0h.42c.15,0,.29,0,.43,0l.86.06.43,0,.42.06.85.11c.29,0,.57.09.85.14l.84.16.84.2.41.1.42.1.82.24.41.12.22.07.22.08.87.31.22.08.11,0,.08,0,.33.13.66.27.09,0,.2.09.19.09.37.17a31.74,31.74,0,0,1,5.68,3.35A32,32,0,0,1,76,73.21a36.21,36.21,0,0,1,1.92,11.92l0,1.46-.1,1.46c0,.24,0,.48-.07.72l-.08.71c0,.48-.13,1-.2,1.42l-.11.7-.15.7c-.09.46-.17.92-.3,1.38l-.17.68-.08.34,0,.17-.05.16-.4,1.34c0,.11-.07.22-.11.33l-.11.32-.22.65c-.14.43-.33.88-.5,1.31l-.26.66a2.71,2.71,0,0,1-.13.3l-.13.29-.25.57-.13.29-.09.2-.07.15A42.11,42.11,0,0,1,71.55,106c-.24.36-.46.73-.71,1.08l-.36.52-.37.52c-.25.35-.51.68-.76,1l-.39.49-.39.49a44.7,44.7,0,0,1-3.35,3.62,42.68,42.68,0,0,1-7.38,5.68,43.23,43.23,0,0,1-7.73,3.71,43.79,43.79,0,0,1-4.84,1.43A42.82,42.82,0,0,0,68.74,45Z"/><path class="cls-9" d="M106.72,89.7l.16-.4.32-.81.15-.41.15-.39.23-.75c.34-1,.6-2,.86-3.11a34.85,34.85,0,0,0,.33-13.16,37.77,37.77,0,0,0-1.72-6.44,39.67,39.67,0,0,0-2.82-6,40.87,40.87,0,0,0-3.76-5.42,43.81,43.81,0,0,0-4.49-4.74A44.83,44.83,0,0,0,91,44l-1.36-.89-1.4-.83c-1-.53-1.9-1.06-2.89-1.52l-.6-.3-.9-.39-.44-.19-.12-.05-.08,0-.16-.06-.63-.24-.16-.06-.17-.06-.37-.12L81,39.06l-.37-.1-.38-.1-.75-.21-.77-.16c-.25-.05-.5-.12-.76-.15l-.77-.13-.39-.06-.38,0L75.66,38c-.13,0-.26,0-.39,0l-.39,0-.78-.05H72.53l-.78,0c-.27,0-.53,0-.79,0l-.78.06-.17,0A48.89,48.89,0,0,1,81.9,115.48,51.93,51.93,0,0,0,87,112.77a50.64,50.64,0,0,0,4.69-3.26,52.22,52.22,0,0,0,4.43-3.92,51.07,51.07,0,0,0,4-4.59,51.77,51.77,0,0,0,3.54-5.21c.14-.23.26-.46.4-.69l.39-.7c.13-.24.25-.48.38-.71l.19-.36.18-.36.36-.73c.11-.24.23-.49.35-.73.23-.49.44-1,.66-1.49l.08-.19s0,.07,0,0Z"/><path class="cls-9" d="M104.8,14.77a59,59,0,0,0-81,20.39c-.86,1.44-1.64,2.89-2.36,4.37A48.57,48.57,0,0,1,47,32.33c.73,0,1.47,0,2.2.05a40.76,40.76,0,0,1,14.63-7.1l.57-.15L65,25l1.15-.24c.39-.09.78-.14,1.16-.21l1.17-.19,1.17-.13c.39-.05.78-.1,1.17-.12L72,24c.19,0,.39,0,.59,0h.59l1.18,0,1.18,0,.59,0,.59,0,1.18.1.59.05.59.07,1.17.16c.39.05.78.13,1.16.2l1.17.21,1.15.27.57.14c.2.05.39.09.58.15l1.13.33.57.17.3.09.3.11,1.21.42.3.11.15.06.11,0,.46.18.91.37.11,0,.29.12.25.12.52.24a43.61,43.61,0,0,1,7.83,4.61,44.16,44.16,0,0,1,15.46,21.21,50,50,0,0,1,2.64,16.44c0,.67,0,1.35,0,2s-.09,1.33-.14,2c0,.33-.06.66-.1,1l-.11,1c-.06.66-.18,1.31-.28,2l-.15,1-.2,1c-.13.63-.24,1.27-.41,1.9l-.24.94-.11.46-.06.24-.07.23L115,85.57l-.15.45-.16.45c-.1.3-.2.6-.31.9-.19.59-.45,1.2-.68,1.8l-.36.91c-.05.15-.11.27-.17.41l-.18.4-.36.79-.18.4-.12.27-.1.2a59.38,59.38,0,0,1-3.5,6.32c-.32.49-.64,1-1,1.48l-.5.72-.52.71c-.33.48-.69.94-1,1.41l-.54.68-.54.67a61.2,61.2,0,0,1-4.61,5,59.15,59.15,0,0,1-10.19,7.84,59.77,59.77,0,0,1-10.65,5.11,61.12,61.12,0,0,1-6.68,2A59,59,0,0,0,104.8,14.77Z"/></svg>